<?xml version="1.0" encoding="UTF-8" standalone="no"?>
<!-- Created with Inkscape (http://www.inkscape.org/) -->

<svg
   xmlns:dc="http://purl.org/dc/elements/1.1/"
   xmlns:cc="http://creativecommons.org/ns#"
   xmlns:rdf="http://www.w3.org/1999/02/22-rdf-syntax-ns#"
   xmlns:svg="http://www.w3.org/2000/svg"
   xmlns="http://www.w3.org/2000/svg"
   xmlns:sodipodi="http://sodipodi.sourceforge.net/DTD/sodipodi-0.dtd"
   xmlns:inkscape="http://www.inkscape.org/namespaces/inkscape"
   width="110mm"
   height="110mm"
   viewBox="0 0 389.76378 389.76377"
   id="svg3344"
   version="1.1"
   inkscape:version="0.91 r13725"
   sodipodi:docname="earth.svg">
  <defs
     id="defs3346" />
  <sodipodi:namedview
     id="base"
     pagecolor="#ffffff"
     bordercolor="#666666"
     borderopacity="1.0"
     inkscape:pageopacity="0.0"
     inkscape:pageshadow="2"
     inkscape:zoom="0.7"
     inkscape:cx="-86.415141"
     inkscape:cy="168.73753"
     inkscape:document-units="px"
     inkscape:current-layer="layer1"
     showgrid="false"
     fit-margin-top="0"
     fit-margin-left="0"
     fit-margin-right="0"
     fit-margin-bottom="0"
     inkscape:window-width="1366"
     inkscape:window-height="744"
     inkscape:window-x="0"
     inkscape:window-y="24"
     inkscape:window-maximized="1" />
  <metadata
     id="metadata3349">
    <rdf:RDF>
      <cc:Work
         rdf:about="">
        <dc:format>image/svg+xml</dc:format>
        <dc:type
           rdf:resource="http://purl.org/dc/dcmitype/StillImage" />
        <dc:title></dc:title>
      </cc:Work>
    </rdf:RDF>
  </metadata>
  <g
     inkscape:label="Layer 1"
     inkscape:groupmode="layer"
     id="layer1"
     transform="translate(-205.61798,-302.92313)">
    <circle
       style="fill:none;fill-rule:evenodd;stroke:#000000;stroke-width:15.49563217;stroke-linecap:butt;stroke-linejoin:miter;stroke-miterlimit:4;stroke-dasharray:none;stroke-dashoffset:0;stroke-opacity:1"
       id="path3353"
       cx="400.8136"
       cy="497.80499"
       r="175.82361" />
    <path
       style="fill:#000000;fill-opacity:1;fill-rule:nonzero;stroke:none;stroke-width:1px;stroke-linecap:butt;stroke-linejoin:miter;stroke-opacity:1"
       id="path3367"
       d="m 383.30529,542.08415 c -3.76163,-2.68187 -7.41124,-5.41693 -11.67128,-7.26272 -4.00265,-1.29928 -8.03607,-2.3176 -11.64637,-4.53021 -2.56388,-2.01432 -4.67543,-4.51198 -6.4961,-7.19823 -1.41817,-2.61784 -2.73443,-5.29584 -4.03978,-7.97358 -0.9456,-2.34768 -1.31701,-4.83471 -1.49844,-7.34157 -0.0925,-2.66593 -0.0381,-5.33464 -0.0126,-8.00151 0.14285,-3.42361 -0.12015,-6.85823 0.13987,-10.27423 0.47629,-3.70384 2.5768,-6.54188 5.11144,-9.12547 7.59675,-7.16983 18.17231,-11.68627 26.83213,-16.59813 5.09609,-2.57087 10.6125,-4.23693 16.10323,-5.74165 4.82274,-1.04247 9.73893,-1.50827 14.66354,-1.64279 5.10078,-0.0514 10.20084,0.048 15.3017,0.0424 6.24298,0.0994 12.49246,-0.13642 18.72379,0.28581 7.65492,0.52263 14.00443,4.7045 20.21223,8.81888 6.02855,3.73086 11.40441,8.30312 16.41302,13.29104 4.34356,4.11078 8.15549,8.70559 11.84657,13.40085 3.48284,4.6905 6.78334,9.5434 9.44429,14.75151 1.6267,3.16202 2.95315,6.4756 4.23166,9.79153 0.88698,2.42323 1.09956,4.96084 1.17712,7.51453 0.0555,2.32605 0.061,4.65269 0.093,6.979 -0.0528,1.81438 0.0267,3.63151 -0.0363,5.44479 -2.1413,10.62847 -15.0887,11.98847 -23.74837,12.0948 -2.35703,0.004 -4.61773,-0.84159 -6.94618,-1.19657 -7.18716,-0.98448 -18.28498,8.51693 14.98699,-9.50415 0.40222,-0.21786 -0.7905,0.46518 -1.15288,0.74433 -0.45786,0.3527 -0.86741,0.76403 -1.30111,1.14605 -3.01874,2.84048 -4.67156,6.59265 -6.28656,10.32208 -1.42511,3.67429 -2.62801,7.43682 -3.81007,11.19622 -1.29215,4.65017 -2.79305,9.23822 -4.14059,13.87151 -1.60288,5.03963 -3.38089,10.02458 -5.09562,15.02832 -1.30914,4.1666 -2.6597,8.32101 -3.83053,12.52915 -1.44412,5.28842 -3.03694,10.53639 -4.38367,15.85099 -0.96771,3.85372 -2.07751,7.67689 -3.47503,11.39786 -0.98206,2.51866 -2.40403,4.83137 -3.73701,7.17495 -1.02643,1.54691 -2.24056,3.19268 -3.89251,4.13661 -19.04534,10.88248 -12.28188,8.90805 -20.60442,11.20845 -3.14272,0.42406 -5.15954,0.7751 -8.07317,-0.71168 -4.23782,-2.35653 -7.01695,-6.27007 -9.78599,-10.11296 -3.90744,-4.88635 -5.72147,-10.69819 -7.41318,-16.60203 -1.52244,-5.31298 -2.44853,-10.78378 -3.29993,-16.23916 -0.82223,-5.11476 -1.05056,-10.29614 -1.21282,-15.46566 -0.13445,-4.05398 -0.17721,-8.10902 -0.1422,-12.16475 0.0328,-3.85488 -0.004,-7.70925 -0.0135,-11.56407 0.0889,-3.59511 -1.41703,-6.64595 -3.18308,-9.66517 -1.63832,-3.0158 -3.40823,-5.89713 -5.68758,-8.46831 -1.21937,-1.46018 -2.75814,-2.57387 -4.31607,-3.62895 -1.61062,-1.68095 -3.75473,-2.41769 -5.74735,-3.49049 -1.70715,-1.10487 -3.84402,-1.01103 -5.6082,-1.86228 -2.0097,-0.97185 -2.30745,-3.23764 -2.56987,-5.22688 -0.11822,-1.44691 -0.0742,-2.8745 -0.43271,-4.28592 0,0 18.63383,-10.14302 18.63383,-10.14302 l 0,0 c 0.46359,1.53743 0.64894,2.99964 0.57787,4.61217 0.0962,1.28766 -0.0614,2.76651 1.396,3.19048 1.98065,0.45915 3.87419,1.15948 5.67158,2.11913 2.13477,1.0449 4.17616,2.20534 6.0189,3.72207 1.59713,1.26637 3.23115,2.4736 4.45435,4.13808 2.18373,2.77563 4.09814,5.69949 5.74969,8.82574 1.97695,3.31232 3.65905,6.69017 3.74964,10.63322 -0.0141,3.86426 -0.0607,7.72798 -0.04,11.5924 0.0262,4.05763 -0.0333,8.11475 0.004,12.17235 0.10319,5.08715 0.29813,10.18673 1.07561,15.22294 0.89539,5.38104 1.53032,10.82511 3.04048,16.08083 1.70387,5.63081 3.27818,11.30526 7.12335,15.93372 2.64198,3.48372 5.28119,7.14612 9.4242,8.94459 2.42436,0.58041 4.92517,0.2513 7.28594,-0.52388 7.16408,-2.90362 0.52605,-0.27294 -15.74899,9.34604 -0.39418,0.23298 0.84853,-0.34999 1.24842,-0.57303 1.00509,-0.56062 1.32206,-0.89735 2.13807,-1.69481 0.30608,-0.29912 0.59905,-0.61137 0.89858,-0.91706 1.4269,-2.22091 2.66819,-4.59434 3.8825,-6.91722 1.723,-3.56353 2.74553,-7.42997 3.87169,-11.21049 1.27787,-5.31513 3.04225,-10.5015 4.2483,-15.83401 1.11713,-4.30206 2.5367,-8.49911 3.90862,-12.72492 1.7161,-4.96185 3.35046,-9.94707 5.11271,-14.89192 1.21174,-4.65644 2.82814,-9.19427 4.06001,-13.84672 0.97127,-3.88156 2.38833,-7.63738 3.67203,-11.42489 1.59906,-3.83858 3.07411,-7.85105 5.89926,-10.98629 5.75123,-7.04173 14.96883,-14.81097 24.20469,-12.59852 2.19061,0.45605 4.36647,1.11217 6.63107,0.86322 1.19173,-0.072 2.47609,-0.063 3.61405,-0.48298 0.2638,-0.0974 0.97489,-0.56085 0.7338,-0.41613 -17.57636,10.55066 -24.21976,10.76024 -16.83941,10.42061 0.98773,-1.19522 0.0322,-3.50939 0.33469,-4.96868 0.0549,-2.32151 0.0879,-4.64485 0.0504,-6.96678 -0.0732,-2.32641 -0.16829,-4.67536 -0.8678,-6.91527 -1.13809,-3.29943 -2.38214,-6.58027 -3.89312,-9.72664 -2.42724,-5.15498 -5.66087,-9.87785 -9.02489,-14.46325 -3.76215,-4.54605 -7.54787,-9.06292 -11.75776,-13.20558 -4.85133,-4.94009 -10.19806,-9.29573 -16.04511,-13.02299 -6.02433,-3.95786 -12.27207,-7.58937 -19.67706,-7.85856 -6.26732,-0.19798 -12.53744,-0.0794 -18.8072,-0.10578 -5.13327,-0.0329 -10.2682,-0.0209 -15.3996,0.13327 -4.7787,0.23173 -9.56841,0.64313 -14.20155,1.91357 -5.47026,1.58914 -10.887,3.4365 -15.94466,6.09078 30.09212,-17.75112 14.86947,-9.43832 8.83814,-4.38901 -2.42805,2.23327 -4.86119,4.43414 -5.66597,7.7827 -0.49952,3.32612 -0.16703,6.71795 -0.23691,10.07093 0.008,2.61197 9.9e-4,5.22419 0.0662,7.83538 0.0841,2.25989 0.25346,4.52865 1.06184,6.66599 1.15571,2.62162 2.48147,5.17044 3.84917,7.68619 1.65818,2.42356 3.48408,4.75582 5.91821,6.4573 3.6022,1.99384 7.62467,2.86149 11.40545,4.45352 4.23437,2.09552 7.95461,4.98375 12.09234,7.25161 0,0 -17.78477,11.50708 -17.78477,11.50708 z"
       inkscape:connector-curvature="0" />
    <path
       style="fill:#000000;fill-opacity:1;fill-rule:nonzero;stroke:none;stroke-width:1px;stroke-linecap:butt;stroke-linejoin:miter;stroke-opacity:1"
       id="path3369"
       d="m 399.42506,429.04255 c -2.23366,2.53035 -5.0814,4.47365 -7.89107,6.31634 -2.83192,1.58137 -5.16333,3.82184 -7.63235,5.88165 -7.69417,5.39657 -15.49289,11.78182 -24.93532,13.00132 -2.47442,0.29583 -4.97833,0.27198 -7.4676,0.26645 -3.29671,0.0857 -6.33835,-1.11856 -9.26085,-2.50751 -2.14364,-1.29534 -3.88278,-2.84151 -5.05348,-5.06032 -0.75441,-1.72496 -0.72669,-3.58379 -0.76478,-5.42602 -0.11361,-2.0895 0.0127,-3.97314 1.52465,-5.53693 10.49382,-7.088 13.84412,-11.239 23.25659,-11.1326 1.7153,-0.005 3.43033,0.0357 5.14559,0.0376 -0.76971,1.36445 4.67974,-1.8795 3.39101,-1.15089 -17.23915,9.74648 -22.59915,13.94127 -16.39697,9.16483 1.34808,-1.16395 2.30049,-2.57139 2.80498,-4.27066 0.46135,-1.83845 0.35495,-3.77529 0.40059,-5.65877 -0.0946,-2.87054 -1.1391,-5.50615 -2.25094,-8.10589 -1.18915,-1.96917 -2.3195,-3.99721 -3.04666,-6.18654 -2.68422,-9.3502 10.92532,-14.39346 19.81208,-15.00803 3.16264,-0.22319 6.33725,-0.17798 9.50587,-0.17945 3.31051,0.0264 6.62079,0.0242 9.93133,0.0114 2.82185,0.0211 5.64355,0.003 8.46544,-6.6e-4 1.22581,0.22053 2.60994,-0.27039 3.8235,-0.01 1.4383,0.30884 3.02034,1.20497 4.31982,1.86379 2.74494,1.84321 5.52688,3.60838 8.38599,5.26957 2.16697,1.15397 4.5428,1.34564 6.9422,1.45077 1.67745,-0.25971 4.53611,0.50822 6.09186,0.046 0.96992,-0.28815 1.70667,-1.08778 2.57365,-1.60942 -31.90983,17.92813 -15.96168,12.69061 -13.56286,4.85245 0.45414,-1.78082 0.42107,-3.63534 0.43373,-5.45978 0.18413,-2.61873 -0.86428,-4.57729 -2.7273,-6.32826 -2.57212,-1.85514 -5.58978,-2.62771 -8.67181,-3.10162 -3.05693,-0.0736 -6.01181,-0.61782 -9.01611,-1.12112 -2.61048,-0.41074 -5.25333,-0.51755 -7.89106,-0.57315 -2.58336,0.0133 -4.36762,0.28487 -6.39151,-1.54231 -1.52146,-1.85054 -2.22906,-3.90331 -1.90685,-6.27008 7.5253,-16.79564 16.17373,-8.47949 24.89091,-12.78593 2.91744,-1.73449 6.14629,-2.5108 9.46637,-2.99493 3.08165,-0.34295 6.18871,-0.27723 9.28373,-0.25446 3.17965,0.0195 6.35919,-0.008 9.53886,-0.006 2.28042,0.001 4.56081,-0.018 6.84123,-0.0203 1.84511,0.004 3.69003,-0.016 5.53514,-0.005 1.71047,0.008 3.42093,-0.0139 5.13133,-0.0125 2.20922,-0.0104 4.41738,0.0543 6.62671,0.0651 3.26218,0.0214 6.52455,-0.008 9.78682,-0.0133 2.52802,-0.0305 5.05648,-0.028 7.58451,-10e-4 1.86354,0.0851 3.59388,0.0523 5.28316,-0.82586 0.43664,-0.22698 1.69149,-1.00645 1.26315,-0.76418 -5.61361,3.17511 -11.213,6.37531 -16.8195,9.56296 2.45249,-1.87451 4.02846,-4.66151 5.31289,-7.42204 1.05381,-2.23326 1.08248,-4.7045 1.14592,-7.12221 0.0591,-2.22269 -0.0178,-4.4451 -0.0382,-6.66754 0.14513,-1.34489 -0.29278,-2.44843 -0.74297,-3.67813 -0.0711,-0.25672 -0.14212,-0.51344 -0.21317,-0.77016 0,0 18.69012,-10.11999 18.69012,-10.11999 l 0,0 c 0.0457,0.20026 0.0915,0.40052 0.13726,0.60078 0.48159,1.4386 1.25335,2.76235 1.0098,4.33151 0.009,2.25306 -0.0186,4.50617 -0.0102,6.75928 -0.0456,2.63141 0.0236,5.34137 -0.77252,7.87483 -1.28981,3.00879 -2.93019,5.88529 -4.92755,8.48153 -12.21566,7.16311 -15.22481,12.39238 -26.36308,12.1431 -2.52709,0.0261 -5.0546,0.0302 -7.58167,-10e-4 -3.25008,-0.006 -6.50026,-0.0349 -9.75024,-0.0133 -2.26906,0.0109 -4.53707,0.0749 -6.80601,0.0652 -1.69904,10e-4 -3.39814,-0.0204 -5.09726,-0.0122 -1.841,0.0111 -3.6818,-0.008 -5.5228,-0.005 -2.25723,-0.004 -4.51435,-0.0266 -6.77154,-0.0364 -3.14661,-0.0147 -6.2929,-0.0738 -9.43961,-0.0499 -3.05084,0.0443 -6.12266,0.0481 -9.13537,0.5942 -3.21524,0.6781 -6.19828,1.87946 -9.17454,3.26072 -1.43583,0.40099 -2.84028,0.57478 -4.27908,0.91688 -0.3351,0.0797 -1.28797,0.46549 -0.99205,0.28921 17.08364,-10.17684 23.86383,-9.2304 16.30689,-10.07585 -1.53164,0.68184 -0.42757,2.75244 0.39695,3.63081 1.78839,0.75069 3.7567,0.36218 5.64586,0.52915 2.67965,0.12802 5.3555,0.37794 7.99901,0.8459 2.99216,0.52303 6.00314,0.72517 9.00467,1.1724 3.37567,0.74892 6.72609,1.84382 9.39534,4.13525 2.02449,2.12975 3.73776,4.64883 3.60705,7.72057 0.0367,1.98104 0.13324,3.97104 -0.16375,5.93889 -2.28874,10.4 -11.68701,12.10475 -21.97582,17.42056 -3.00602,1.22605 -6.19272,0.84101 -9.38228,0.70249 -2.66489,-0.24502 -5.20282,-0.84057 -7.50203,-2.28537 -2.72389,-1.72109 -5.41283,-3.51148 -8.22093,-5.08524 -2.52483,-1.02165 -4.9572,-1.27581 -7.67981,-1.07571 -2.81661,-0.005 -5.63307,-0.0249 -8.44966,-0.0175 -3.28881,-0.0316 -6.57744,-0.063 -9.86649,-0.0441 -3.10754,0.0156 -6.27656,-0.0678 -9.31537,0.67074 -7.17161,3.35704 0.59822,-0.23739 16.26897,-9.99867 0.16555,-0.10313 -0.40993,-0.0203 -0.58037,0.0745 -0.6243,0.34729 -0.054,1.41879 -0.0755,1.9061 0.56201,2.1739 1.66471,4.13079 2.78937,6.0585 1.20894,2.8484 2.37314,5.72 2.67892,8.83437 0.0587,2.01823 0.0942,4.04253 -0.0113,6.05835 -0.42981,1.97043 -1.00128,3.90372 -2.44425,5.39504 -5.717,6.84565 -14.68761,12.44605 -23.71031,12.50249 -1.69455,-0.021 -3.39049,-0.0304 -5.08435,0.0274 -7.68666,0.63926 -18.43831,10.09382 13.59314,-9.18287 -2.10703,0.9396 -2.53711,1.23553 -2.37781,3.69106 -0.0137,1.52208 -0.068,3.08322 0.33641,4.56388 0.82967,1.83452 2.419,2.96837 4.14328,3.93778 2.79285,1.25309 5.71462,1.89587 8.79383,1.70306 2.41896,-0.0376 4.85302,-0.0727 7.23248,-0.56137 1.0567,-0.26399 1.40064,-0.30863 2.40484,-0.72089 0.372,-0.15271 1.43773,-0.71858 1.09081,-0.51523 -29.88623,17.51832 -21.46641,12.00056 -15.00769,8.79598 2.65133,-1.94168 4.88852,-4.33378 7.62262,-6.16785 2.87686,-1.53349 5.37618,-3.58698 8.01992,-5.47428 0,0 19.48553,-8.39704 19.48553,-8.39704 z"
       inkscape:connector-curvature="0" />
    <path
       style="fill:#000000;fill-opacity:1;fill-rule:nonzero;stroke:none;stroke-width:1px;stroke-linecap:butt;stroke-linejoin:miter;stroke-opacity:1"
       d="m 435.65309,426.31336 c -1.78072,0.0254 -3.56098,0.005 -5.3418,0.0195 -2.2809,0.0181 -4.56292,-0.003 -6.84375,0.0352 -3.34234,0.0355 -6.683,-0.004 -10.02539,0.0254 -3.65066,0.0209 -7.30361,0.0417 -10.95312,-0.0723 l -17.16602,12.4707 c 3.71517,-0.1105 7.43222,-0.0919 11.14844,-0.0703 3.31902,0.0295 6.63807,-0.0105 9.95703,0.0254 2.24885,0.0378 4.49912,0.0169 6.74805,0.0352 1.76213,0.0144 3.52312,-0.006 5.28515,0.0195 1.43429,0.005 2.86848,0.007 4.30274,-0.008 2.46173,-0.0408 4.92472,-0.0473 7.38672,-0.0215 2.02344,0.0127 4.04692,1.2e-4 6.07031,0.0156 2.36617,-0.22885 4.5108,0.54777 6.6543,1.44141 2.7169,1.52619 5.42586,3.06419 8.0039,4.82031 2.97576,1.97025 5.75695,4.14948 8.29688,6.65625 2.24511,2.23845 3.92044,4.85166 5.08398,7.78711 0.78754,1.93886 1.2981,4.02368 2.23633,5.89648 1.46354,2.58282 3.3102,4.73866 5.66992,6.53321 2.86716,2.18897 5.91609,4.12548 8.83399,6.24219 2.01843,1.46929 4.26549,2.532 6.26757,4.02539 3.40815,1.98514 6.4923,4.36762 9.41993,6.99804 2.56319,2.59931 5.03215,5.30513 7.47656,8.01953 1.92693,1.98726 4.0925,3.69676 5.60156,6.04493 1.05513,1.85059 1.95621,3.56739 3.80664,4.71093 1.76484,0.85209 3.74571,0.83642 5.66211,0.85352 1.65318,0.015 3.3058,0.004 4.95898,0.006 8.56128,0.56565 19.64374,-4.37573 21.66602,-12.92578 0.63471,-2.64321 1.48335,-5.2003 2.00781,-7.87696 0.17486,-2.63096 0.89139,-5.17167 1.22852,-7.78125 0.19686,-3.05242 1.30272,-5.91954 2.3125,-8.77539 0.9047,-2.68518 0.88557,-5.52449 1.01367,-8.32031 0.0523,-2.73913 0.0561,-5.47923 0.0449,-8.21875 -0.14147,-2.08803 0.33854,-4.23383 -0.23242,-6.26172 -0.76319,-2.45096 -3.23724,-3.56702 -5.4668,-4.38281 -2.35041,-0.61885 -4.64041,-1.43227 -6.93945,-2.2168 -0.4653,-0.14448 -0.93457,-0.26872 -1.4043,-0.39257 0.49036,-0.0106 0.98088,-0.0218 1.47071,-0.0293 1.79636,-0.004 3.59426,0.004 5.39062,-0.004 1.92353,0.0147 3.84608,-0.0143 5.76953,0.0137 1.59541,8e-4 3.18988,-0.0112 4.78516,0.0137 1.79993,0.002 3.60046,-0.0373 5.40039,-0.0312 1.3992,-0.0461 2.07354,-0.20749 2.30078,1.27929 0.0215,0.23625 0.043,0.47274 0.0644,0.70899 l 3.57813,-1.88477 c -0.0717,-1.03857 -0.0268,-2.31908 -0.0801,-4.36523 0.0742,-0.3594 0.14838,-0.71874 0.22266,-1.07813 0.047,-0.22727 0.0912,-0.45479 0.14062,-0.68164 -0.0523,-0.27081 -0.0426,-0.54139 0.0684,-0.8125 0.0391,-0.0953 0.0514,0.20459 0.0371,0.30664 -0.0238,0.17065 -0.0688,0.33744 -0.10547,0.50586 0.20121,1.04146 1.35522,2.08645 1.67578,3.17578 0.38594,0.11928 0.78859,0.1508 1.21094,0.11328 0.0307,-0.0851 0.0902,-0.1257 0.19727,-0.0937 0.0425,0.0127 0.0755,0.0361 0.11132,0.0566 0.0775,-0.0121 0.15555,-0.0252 0.23438,-0.041 -0.54432,-0.85593 -1.21185,-2.07446 -1.9707,-3.78125 -0.91396,-1.04721 -1.73555,-2.50356 -2.33789,-3.91602 -2.03573,-0.61717 -3.53611,-1.2564 -3.71289,-1.93945 -0.15041,6.3e-4 -0.30075,-8e-4 -0.45118,0 -1.78646,-0.0112 -3.57292,-0.0125 -5.35937,-0.0215 -1.43326,-0.0202 -2.86583,-0.033 -4.29883,0.008 -1.5459,0.12659 -3.11015,0.14049 -4.57227,0.7207 -0.38534,0.22143 -0.70939,0.57045 -1.13476,0.69922 -0.954,0.28882 -2.14997,-0.21686 -3.12109,0.0156 -2.22791,-0.0173 -4.4576,-0.009 -6.68555,-0.0117 -10.46351,0.0262 -10.97335,1.62734 -24.31641,11.04687 -0.66383,1.03595 -0.83268,2.13631 -0.80078,3.27735 -0.1442,0.0682 -0.10543,0.0649 0,0.0234 0.0195,0.64401 0.10106,1.30157 0.19727,1.9668 0.42845,2.16896 1.05311,4.21616 3.16992,5.29297 2.28643,0.6711 4.5228,1.33867 6.88281,1.71094 2.32277,0.72313 4.55666,1.74301 6.91602,2.29296 1.542,0.34787 3.72969,0.77101 4.22851,2.49414 0.20997,1.92229 0.063,3.87734 0.13867,5.80665 0.002,2.70825 0.0335,5.41845 -0.0703,8.125 -0.10361,2.64538 -0.36603,5.28367 -1.27734,7.79101 -0.94339,2.97529 -1.87195,5.95671 -2.13672,9.08789 -0.31023,1.71314 -0.64205,3.42149 -0.93555,5.13672 -0.43978,-0.62636 -0.80461,-1.34329 -1.24023,-2.0625 -1.59685,-2.41166 -3.72908,-4.32974 -5.84375,-6.28125 -2.49918,-2.7715 -5.13361,-5.44135 -7.78125,-8.06641 -2.89884,-2.70405 -5.85127,-5.31331 -9.24024,-7.39257 -2.05392,-1.45209 -4.16852,-2.72432 -6.36718,-3.95313 -2.90403,-2.14142 -6.0758,-3.91626 -8.88282,-6.20117 -2.15927,-1.53621 -3.72025,-3.43529 -4.94922,-5.7832 -0.87485,-1.86044 -1.48587,-3.83708 -2.30468,-5.72266 -1.38304,-3.12623 -3.23035,-6.00404 -5.50782,-8.56055 -2.73067,-2.44418 -5.49778,-4.83132 -8.5957,-6.80859 -2.59902,-1.92463 -5.29524,-3.57971 -8.07812,-5.22656 -2.19518,-1.12176 -4.57995,-2.24917 -7.08399,-2.26368 -2.03683,0.0153 -4.07445,0.001 -6.11133,0.0137 -2.44213,0.0248 -4.88434,0.0207 -7.32617,-0.0215 -1.42741,-0.014 -2.85575,-0.01 -4.2832,-0.006 z m 97.03516,7.54297 c -0.63998,0.36353 -1.01605,0.56267 -1.6211,0.9043 0.156,-0.46234 0.57737,-0.75606 1.6211,-0.9043 z m 10.41992,61.99805 c 0.0428,0.0279 -0.23255,0.3838 -0.38086,0.45117 -0.15161,0.069 -0.32122,0.0549 -0.49414,0.0273 0.27953,-0.15467 0.55608,-0.31464 0.83593,-0.46875 0.0204,-0.0112 0.033,-0.0137 0.0391,-0.01 z"
       id="path3371"
       inkscape:connector-curvature="0" />
    <path
       style="fill:#000000;fill-opacity:1;fill-rule:nonzero;stroke:none;stroke-width:1px;stroke-linecap:butt;stroke-linejoin:miter;stroke-opacity:1"
       id="path3373"
       d="m 475.02805,613.66234 c 0.12938,-2.84326 0.0408,-5.69057 0.0622,-8.53543 -0.16177,-2.82739 0.20553,-5.59773 0.88319,-8.33572 0.58265,-2.48593 2.19654,-4.45415 3.57358,-6.532 5.37261,-7.47282 16.31365,-11.16583 23.24242,-15.08948 1.56118,-0.41246 3.20226,-0.36765 4.80569,-0.33653 1.43412,0.0225 2.86836,0.0309 4.30257,0.0458 1.29486,0.002 2.58968,0.002 3.88451,-0.006 1.84224,-0.10991 2.78548,-0.0286 4.37414,0.99725 1.8033,1.43144 2.87401,3.2532 3.41703,5.45866 0.43161,2.04022 0.3719,4.13789 0.35188,6.21052 -0.0165,2.25961 0.26448,4.49305 -0.74884,6.57948 -4.83266,7.86863 -14.13239,11.85739 -22.80507,11.87492 -1.76796,0.1219 -3.65865,-0.36809 -5.33242,0.27614 -2.1759,0.33297 -4.16265,1.12262 -6.22524,1.84714 -1.97036,0.31991 -3.79732,0.9428 -5.70019,1.52191 -0.3363,0.067 -0.6726,0.134 -1.00891,0.201 0,0 16.82734,-12.86226 16.82734,-12.86226 l 0,0 c 0.31548,-0.0947 0.63096,-0.18935 0.94644,-0.28402 1.8769,-0.55784 3.79061,-0.9431 5.64433,-1.57822 2.10873,-0.70054 4.24846,-1.23476 6.44403,-1.59928 1.83056,-0.0275 3.66439,0.0435 5.49179,-0.0929 0.80925,-0.0979 1.64428,-0.15839 2.38886,-0.52827 0.21527,-0.10693 0.80694,-0.52216 0.59937,-0.40094 -17.90187,10.45399 -23.96655,12.21495 -16.75735,10.04612 2.01854,-1.76675 1.3501,-2.86325 1.41467,-5.41186 -0.0176,-1.92536 0.0164,-3.86078 -0.20691,-5.77593 -0.28596,-1.60801 -0.93259,-2.99667 -2.43645,-3.80939 -1.26161,-0.3494 -2.59739,-0.093 -3.90229,-0.15875 -1.28573,-0.0106 -2.57147,-0.0148 -3.85718,-0.0296 -1.42323,-0.005 -2.84655,-0.0394 -4.2697,-0.005 -1.47851,0.0833 -2.93899,0.2387 -4.25869,0.97777 5.77325,-3.34217 11.5465,-6.68434 17.31975,-10.0265 -0.41999,0.21546 -1.51362,0.75977 -1.87296,1.01805 -0.99111,0.71237 -1.7881,1.69198 -2.71719,2.47668 -1.32899,1.96071 -2.88678,3.80702 -3.85187,5.97385 -0.92144,2.48481 -1.30603,5.13973 -1.1796,7.78771 0.0215,2.8237 -0.068,5.64998 0.0623,8.472 0,0 -18.90522,9.63269 -18.90522,9.63269 z"
       inkscape:connector-curvature="0" />
    <path
       style="fill:#000000;fill-opacity:1;fill-rule:nonzero;stroke:none;stroke-width:1px;stroke-linecap:butt;stroke-linejoin:miter;stroke-opacity:1"
       id="path3375"
       d="m 270.74233,620.80519 c 0.10748,-3.3406 0.10807,-6.6853 0.11743,-10.02785 -0.11349,-5.22524 1.09744,-10.34699 2.28329,-15.39985 1.21734,-4.92519 3.78381,-9.24702 6.33362,-13.56193 1.38849,-2.50292 3.27409,-4.6534 5.20952,-6.73922 1.22228,-1.40832 2.04531,-3.06769 2.96117,-4.67321 1.16158,-1.62264 1.39243,-3.55532 1.57971,-5.48346 0.18987,-2.83639 0.44336,-5.68872 -0.37931,-8.43561 -1.28352,-3.18677 -3.95102,-5.38107 -6.86011,-7.04385 -3.59927,-1.51544 -7.2609,-2.93005 -11.0166,-4.01111 -3.37808,-0.67353 -6.71203,-1.51645 -10.13262,-1.96437 -3.70114,-0.71349 -7.31874,-1.65169 -10.63805,-3.46301 -3.39804,-2.10364 -6.19757,-4.96203 -8.81665,-7.94265 -2.13068,-3.11178 -4.78338,-5.80343 -7.64201,-8.24414 -2.59443,-1.74932 -4.59412,-3.77814 -5.96618,-6.58921 -1.72567,-3.56821 -2.95957,-7.34846 -4.52544,-10.98682 -0.86003,-2.22341 -2.36883,-4.01256 -3.72257,-5.92079 -1.02278,-1.39689 -2.00041,-2.80895 -2.91283,-4.27618 0,0 18.34177,-10.69191 18.34177,-10.69191 l 0,0 c 0.92133,1.41889 1.80179,2.85855 2.83032,4.20702 1.42201,2.04076 2.91672,4.04051 3.79018,6.40193 1.49619,3.6087 2.57084,7.40634 4.44612,10.85317 1.35447,2.49716 3.35231,4.17683 5.56378,5.92783 2.81089,2.61642 5.55338,5.3307 7.75638,8.49408 2.40522,2.841 5.13374,5.42339 8.41495,7.23561 3.23272,1.52499 6.69742,2.36468 10.22302,2.91522 3.47558,0.55574 6.9314,1.30784 10.32679,2.23112 3.82677,1.28128 7.66956,2.63076 11.27207,4.45689 3.2339,2.07474 6.17861,4.59905 7.64318,8.25922 1.21324,3.13675 0.9986,5.81769 0.93829,9.11761 -0.11672,2.15055 -0.23646,4.38428 -1.1209,6.3767 -1.05131,1.608 -1.78402,3.35926 -2.89866,4.92514 -1.61181,2.36214 -4.08776,4.0576 -5.54826,6.56414 -2.45891,4.25696 -5.41454,8.2448 -6.74184,13.06883 -1.15803,4.88375 -2.53396,9.81109 -2.32177,14.87978 0.009,3.30264 0.009,6.6076 0.11743,9.90819 0,0 -18.90522,9.63269 -18.90522,9.63269 z"
       inkscape:connector-curvature="0" />
    <path
       style="fill:#000000;fill-opacity:1;fill-rule:nonzero;stroke:none;stroke-width:1px;stroke-linecap:butt;stroke-linejoin:miter;stroke-opacity:1"
       id="path3377"
       d="m 258.3574,414.9056 c 2.88241,0.0605 5.76654,0.0466 8.64934,0.0155 2.04517,0.002 4.09022,-0.0269 6.13536,-0.0267 0.62698,-0.16946 1.32915,0.19594 1.95378,0.0116 0.81289,-0.23994 1.43999,-0.89515 2.17664,-1.31432 0.53504,-0.30446 2.14791,-1.20406 1.6138,-0.89797 -5.30071,3.03775 -10.60914,6.06201 -15.91371,9.09301 3.95092,-2.61123 7.06814,-6.23729 10.1515,-9.7825 3.64126,-4.1738 7.51266,-8.13686 11.34395,-12.13419 2.73268,-2.73262 5.19168,-5.72535 7.59779,-8.74502 2.49894,-3.43779 4.75959,-7.04359 7.14075,-10.56527 2.29908,-3.26423 3.93696,-6.80842 5.2733,-10.5443 1.02381,-2.53338 1.62947,-5.17306 1.86902,-7.88749 0.15476,-1.93244 0.12529,-3.87238 0.13971,-5.80916 -0.22725,-1.60821 0.42414,-3.02304 0.86249,-4.51697 0.0609,-0.74014 0.48331,-1.29401 0.82966,-1.91803 0,0 19.42396,-8.67582 19.42396,-8.67582 l 0,0 c -0.30095,0.52976 -0.48712,1.14695 -1.06054,1.44031 -0.34148,1.38881 -1.0518,2.66373 -1.16913,4.04138 0.0251,2.00586 -0.004,4.01159 -0.12912,6.0143 -0.2454,2.89093 -0.56571,5.7473 -1.70806,8.45329 -1.52273,3.81723 -2.76633,7.69149 -5.24867,11.05409 -2.32577,3.53249 -4.66885,7.04777 -6.93914,10.6082 -2.29529,3.21759 -4.9594,6.2151 -7.68352,9.06956 -3.87117,3.90631 -7.69934,7.86008 -11.32607,11.99627 -3.13111,3.6136 -6.2015,7.33328 -9.92938,10.35287 -6.62129,3.86098 -13.22326,7.75528 -19.86386,11.58296 -0.72097,0.41557 -2.3724,1.22375 -3.25565,1.428 -1.076,0.24883 -2.22354,0.031 -3.3117,0.11429 -2.02062,2.4e-4 -4.04116,-0.029 -6.06183,-0.0267 -2.89707,-0.0322 -5.79543,-0.0433 -8.69215,0.0156 0,0 17.13148,-12.44675 17.13148,-12.44675 z"
       inkscape:connector-curvature="0" />
    <path
       style="fill:#6161b8;fill-opacity:1"
       d="m 371.68349,662.71424 c -30.85214,-5.9228 -60.05959,-20.14521 -81.37226,-39.62378 l -8.24355,-7.53415 4.55212,-2.15584 c 4.02205,-1.90481 4.45625,-2.66691 3.72878,-6.54466 -1.00445,-5.35415 1.5227,-19.79761 4.49358,-25.6823 1.19801,-2.37298 4.69724,-7.61853 7.77606,-11.65675 4.87996,-6.40063 5.60982,-8.3428 5.69106,-15.14403 0.0512,-4.29099 -0.77573,-9.20917 -1.83773,-10.92932 -2.59149,-4.19748 -13.99403,-9.5749 -26.21663,-12.36373 -5.5,-1.25492 -11.67479,-3.36082 -13.72175,-4.67977 -6.64393,-4.28094 -19.69715,-19.66251 -22.77033,-26.83195 -1.64831,-3.84533 -4.57419,-9.05943 -6.50196,-11.58688 -3.35011,-4.39221 -3.43728,-5.02377 -1.97196,-14.2873 2.01931,-12.76574 4.97358,-24.05046 9.47683,-36.19956 l 3.67734,-9.92095 6.29588,0 c 4.90602,0 8.83556,-1.47566 17.80031,-6.68453 19.43308,-11.29139 49.85493,-47.4441 52.04136,-61.84491 1.66031,-10.93552 2.31606,-11.75763 12.81714,-16.06866 38.67914,-15.87903 85.89101,-16.36613 123.47445,-1.27393 l 9.38269,3.76777 0.42241,9.62356 0.42242,9.62356 -29.39687,0 c -22.8988,0 -30.53052,0.47367 -34.52545,2.14285 -2.82072,1.17858 -7.68578,2.14286 -10.81125,2.14286 -4.5579,0 -6.64407,0.96139 -10.53983,4.85714 -5.02892,5.02892 -6.34274,10.74623 -3.07143,13.36586 0.98214,0.78649 6.28571,1.87366 11.78571,2.41593 17.41865,1.71739 22.14286,3.74334 22.14286,9.49583 0,0.73131 -2.55866,-0.28555 -5.6859,-2.25969 -5.33993,-3.37096 -6.84811,-3.58935 -24.78681,-3.58935 -19.93512,0 -26.64427,1.29066 -32.02729,6.16119 -3.71929,3.36521 -4.17372,9.84049 -1.07143,15.26738 3.47356,6.07636 2.67642,9.61276 -2.74692,12.1863 -2.68938,1.2762 -7.28524,4.39106 -10.21301,6.92192 -4.91339,4.24729 -5.24587,5.01394 -4.31842,9.95767 1.38136,7.36329 7.3745,10.92164 18.40669,10.92877 9.00759,0.006 15.38767,-2.55664 27.08925,-10.87994 l 6.78903,-4.82901 25.0536,0 c 27.12078,0 28.8319,0.38862 40.65273,9.23272 4.32312,3.23449 11.40071,12.64589 11.4226,15.18919 0.004,0.46777 -3.68912,-1.02589 -8.20698,-3.31923 l -8.21428,-4.16973 -27.14286,0.49918 c -30.86136,0.56755 -34.41158,1.504 -56.72472,14.96223 -15.89638,9.58796 -17.56425,12.27967 -17.54784,28.31993 0.0114,11.11093 0.52396,13.82725 3.77416,20 4.58673,8.71104 7.57911,11.53438 14.87885,14.03834 3.46247,1.18769 6.31941,3.35493 7.44278,5.64599 1.00279,2.04511 3.25279,4.14208 5,4.65994 6.3483,1.88157 13.58159,8.06567 17.12803,14.64363 3.24077,6.01097 3.73258,9.00553 4.62411,28.15495 1.55952,33.4975 5.99669,49.71579 16.70856,61.07143 6.33496,6.71567 12.7374,7.16996 22.4477,1.59275 16.46147,-9.45482 18.94814,-12.92639 24.93199,-34.80703 2.04131,-7.46429 7.45584,-25.14005 12.03228,-39.27947 l 8.32082,-25.70806 6.48741,-0.92799 c 14.9392,-2.13695 19.31963,-8.22331 17.49916,-24.31413 -1.13786,-10.05737 -7.3971,-23.45537 -15.6803,-33.56392 -2.79713,-3.41353 -4.4354,-6.20643 -3.64059,-6.20643 1.66339,0 14.5471,12.77351 19.81233,19.64285 3.38334,4.41412 4.0254,4.64275 13.03197,4.64065 10.5671,-0.003 17.64706,-2.77549 21.87872,-8.56922 4.2854,-5.86733 10.71967,-43.4462 8.76937,-51.21683 -0.48332,-1.92567 -2.75184,-4.21856 -5.29584,-5.35271 -4.41146,-1.96669 -4.38168,-1.98099 3.40677,-1.63582 7.80521,0.34592 7.86953,0.38599 9.73053,6.06251 11.88941,36.26575 8.91121,83.15657 -7.54356,118.77077 -21.66187,46.88427 -61.23072,79.47631 -113.61555,93.5828 -13.94465,3.7551 -52.89668,4.94513 -67.85714,2.07311 z m 114.42393,-52.99811 c 6.01743,-1.96429 13.26943,-3.58555 16.11556,-3.6028 6.25091,-0.0379 15.55307,-4.09786 19.46051,-8.49359 2.17413,-2.44583 2.81273,-5.0564 2.67134,-10.92036 -0.25458,-10.55841 -1.78687,-11.98325 -12.887,-11.98325 -12.98317,0 -27.3963,7.47121 -34.074,17.66267 -2.12974,3.25038 -4.74854,20.90876 -3.10084,20.90876 0.4805,0 5.797,-1.60715 11.81443,-3.57143 z"
       id="path3395"
       inkscape:connector-curvature="0" />
  </g>
</svg>
