<?xml version="1.0" encoding="UTF-8" standalone="no"?>
<!-- Created with Inkscape (http://www.inkscape.org/) -->

<svg
   xmlns:dc="http://purl.org/dc/elements/1.1/"
   xmlns:cc="http://creativecommons.org/ns#"
   xmlns:rdf="http://www.w3.org/1999/02/22-rdf-syntax-ns#"
   xmlns:svg="http://www.w3.org/2000/svg"
   xmlns="http://www.w3.org/2000/svg"
   xmlns:sodipodi="http://sodipodi.sourceforge.net/DTD/sodipodi-0.dtd"
   xmlns:inkscape="http://www.inkscape.org/namespaces/inkscape"
   width="192.02339mm"
   height="177.76463mm"
   viewBox="0 0 680.39784 629.87468"
   id="svg2"
   version="1.1"
   inkscape:version="0.91 r13725"
   sodipodi:docname="polaroid.svg">
  <defs
     id="defs4">
    <filter
       inkscape:collect="always"
       style="color-interpolation-filters:sRGB"
       id="filter4279"
       x="-0.011621878"
       width="1.0232438"
       y="-0.012403554"
       height="1.0248071">
      <feGaussianBlur
         inkscape:collect="always"
         stdDeviation="3.0400802"
         id="feGaussianBlur4281" />
    </filter>
  </defs>
  <sodipodi:namedview
     id="base"
     pagecolor="#ffffff"
     bordercolor="#666666"
     borderopacity="1.0"
     inkscape:pageopacity="0.0"
     inkscape:pageshadow="2"
     inkscape:zoom="0.49326669"
     inkscape:cx="170.75302"
     inkscape:cy="442.28509"
     inkscape:document-units="px"
     inkscape:current-layer="layer1"
     showgrid="false"
     inkscape:window-width="1366"
     inkscape:window-height="744"
     inkscape:window-x="0"
     inkscape:window-y="24"
     inkscape:window-maximized="1"
     fit-margin-top="0"
     fit-margin-left="0"
     fit-margin-right="0"
     fit-margin-bottom="0" />
  <metadata
     id="metadata7">
    <rdf:RDF>
      <cc:Work
         rdf:about="">
        <dc:format>image/svg+xml</dc:format>
        <dc:type
           rdf:resource="http://purl.org/dc/dcmitype/StillImage" />
        <dc:title />
      </cc:Work>
    </rdf:RDF>
  </metadata>
  <g
     inkscape:label="Layer 1"
     inkscape:groupmode="layer"
     id="layer1"
     transform="translate(-31.848304,-33.139141)">
    <path
       id="path4227"
       style="fill:none;fill-rule:evenodd;stroke:#000000;stroke-width:1px;stroke-linecap:butt;stroke-linejoin:miter;stroke-opacity:1"
       d="M 84.558127,494.74785 100.77653,95.369574 644.09317,87.26037 640.03857,478.52944 Z M 58.203216,644.76812 60.230517,62.932759 690.72109,52.796255 682.61189,642.74082 Z" />
    <path
       style="fill:none"
       d="M 54.881424,448.40186 C 55.066622,424.41818 70.267086,64.807106 71.127044,64.064597 72.727734,62.68252 608.15817,55.863811 609.50274,57.20838 c 1.52556,1.525563 -2.24753,384.24257 -3.80348,385.7985 -0.79403,0.79404 -516.85092,16.9083 -545.332772,17.02844 -5.448615,0.023 -5.573036,-0.2409 -5.485064,-11.63346 z"
       id="path4261"
       inkscape:connector-curvature="0"
       transform="translate(31.848304,33.139141)" />
    <path
       style="fill:none"
       d="M 54.881424,448.40186 C 55.066622,424.41818 70.267086,64.807106 71.127044,64.064597 72.727734,62.68252 608.15817,55.863811 609.50274,57.20838 c 1.52556,1.525563 -2.24753,384.24257 -3.80348,385.7985 -0.79403,0.79404 -516.85092,16.9083 -545.332772,17.02844 -5.448615,0.023 -5.573036,-0.2409 -5.485064,-11.63346 z"
       id="path4263"
       inkscape:connector-curvature="0"
       transform="translate(31.848304,33.139141)" />
    <path
       style="fill:#f9f9f9;stroke:#000000;stroke-opacity:1;filter:url(#filter4279)"
       d="m 28.439377,398.01617 c 0.0016,-116.96113 0.603376,-247.40679 1.337317,-289.87924 l 1.334437,-77.22264 86.343449,-1.237475 c 47.48889,-0.680612 187.80353,-2.833621 311.8103,-4.784466 124.0068,-1.950844 226.06773,-2.94614 226.8021,-2.211769 1.37265,1.372656 -6.0981,582.85246 -7.50616,584.23555 -0.43115,0.42348 -140.13549,1.44198 -310.45411,2.26332 l -309.670211,1.49333 0.0029,-212.65661 z m 362.883983,55.24207 217.93485,-6.37686 1.32567,-113.52885 c 0.72914,-62.44087 1.74733,-151.27663 2.26269,-197.4128 l 0.93698,-83.883945 -59.0271,1.313543 c -32.46489,0.722449 -155.2732,2.740645 -272.90734,4.484882 -117.63413,1.744235 -214.000824,3.321788 -214.148196,3.50567 -0.147375,0.18388 -3.555302,83.80844 -7.573173,185.83236 -4.017872,102.02392 -7.824453,192.24347 -8.45907,200.4879 L 50.514819,462.67 111.95167,461.15255 c 33.79026,-0.8346 159.50752,-4.38704 279.37169,-7.89431 z"
       id="path4265"
       inkscape:connector-curvature="0"
       transform="translate(31.848304,33.139141)" />
  </g>
</svg>
